<?xml version="1.0" standalone="no"?>
<!DOCTYPE svg PUBLIC "-//W3C//DTD SVG 20010904//EN"
 "http://www.w3.org/TR/2001/REC-SVG-20010904/DTD/svg10.dtd">
<svg version="1.0" xmlns="http://www.w3.org/2000/svg"
 width="470.000000pt" height="470.000000pt" viewBox="0 0 470.000000 470.000000"
 preserveAspectRatio="xMidYMid meet">

<g transform="translate(0.000000,470.000000) scale(0.100000,-0.100000)"
fill="#000000" stroke="none">
<path d="M2194 4510 c-851 -71 -1582 -624 -1869 -1416 -93 -254 -128 -462
-129 -749 0 -241 16 -376 69 -571 121 -440 359 -809 717 -1110 261 -219 611
-387 947 -454 232 -47 638 -46 861 0 329 69 627 205 895 408 79 61 318 299
387 387 485 620 591 1476 272 2212 -163 377 -440 707 -784 935 -398 263 -906
396 -1366 358z m352 -81 c445 -43 830 -202 1159 -480 375 -315 623 -733 721
-1214 27 -132 29 -154 29 -385 0 -259 -8 -330 -60 -535 -72 -285 -246 -617
-437 -835 -207 -235 -427 -404 -693 -531 -583 -278 -1267 -274 -1839 13 -589
295 -993 823 -1131 1479 -37 172 -46 497 -20 681 64 456 270 869 595 1196 315
318 736 533 1154 592 233 33 344 37 522 19z"/>
<path d="M2375 4317 c-3 -23 -5 -78 -3 -122 l3 -80 73 -3 c71 -3 72 -3 72 23
0 22 -4 25 -37 25 -47 0 -66 11 -57 33 4 12 18 17 45 17 35 0 39 3 39 25 0 23
-4 25 -40 25 -33 0 -40 3 -40 20 0 17 7 20 45 20 41 0 45 2 45 25 0 23 -4 25
-47 26 -27 0 -58 2 -70 5 -19 3 -23 -2 -28 -39z"/>
<path d="M2175 4340 c-7 -12 5 -214 14 -229 5 -7 31 -8 74 -4 66 6 67 6 67 35
0 28 -2 30 -37 27 -64 -3 -63 -5 -63 75 0 41 -3 81 -6 90 -7 18 -39 22 -49 6z"/>
<path d="M2643 4318 c-24 -31 -95 -197 -89 -207 12 -20 42 -12 54 14 16 35 82
32 82 -4 0 -22 19 -41 42 -41 22 0 22 -7 3 121 -19 131 -19 129 -53 129 -16 0
-34 -6 -39 -12z m41 -94 c9 -23 8 -24 -19 -24 -27 0 -32 9 -13 28 16 16 25 15
32 -4z"/>
<path d="M1970 4294 c-6 -14 -10 -34 -10 -44 0 -33 -18 -31 -40 4 -23 37 -35
45 -62 38 -30 -7 -20 -34 32 -90 35 -37 50 -61 50 -81 0 -37 21 -64 43 -55 15
5 16 15 11 68 -4 43 -1 74 10 105 22 60 21 81 -4 81 -13 0 -24 -10 -30 -26z"/>
<path d="M2840 4248 c-6 -24 -19 -71 -30 -106 -11 -34 -20 -64 -20 -67 0 -15
67 -35 115 -35 46 0 60 4 80 24 22 22 45 81 45 117 0 43 -94 109 -155 109 -20
0 -26 -7 -35 -42z m104 -39 c31 -25 33 -57 5 -93 -15 -18 -30 -26 -53 -26 -18
0 -35 3 -39 6 -5 5 24 102 38 124 9 15 19 12 49 -11z"/>
<path d="M1698 4242 c-57 -19 -78 -31 -78 -43 0 -23 18 -34 51 -31 23 3 27 -3
53 -77 22 -63 32 -81 47 -81 32 0 34 31 7 107 l-26 74 24 16 c25 16 30 54 9
59 -5 1 -45 -10 -87 -24z"/>
<path d="M3074 4114 c-24 -52 -44 -102 -44 -110 0 -18 105 -68 125 -60 30 11
16 42 -25 59 -31 12 -38 19 -34 32 5 13 14 15 38 10 54 -12 61 -11 64 10 2 16
-7 26 -34 38 -27 13 -34 21 -26 29 9 9 21 9 48 0 42 -13 54 -9 54 18 0 13 -17
26 -56 44 -31 14 -58 26 -61 26 -2 0 -24 -43 -49 -96z"/>
<path d="M1530 4162 c0 -16 75 -200 85 -210 8 -8 45 10 45 21 0 7 -19 56 -42
110 -35 83 -45 97 -65 97 -16 0 -23 -6 -23 -18z"/>
<path d="M1421 4117 c-8 -11 -1 -32 30 -91 33 -63 38 -80 28 -92 -26 -32 -61
-13 -100 56 -37 66 -72 89 -85 56 -6 -16 52 -122 89 -163 30 -33 78 -30 119 6
46 41 44 85 -6 174 -38 67 -54 79 -75 54z"/>
<path d="M3296 4088 c-65 -103 -95 -160 -90 -172 11 -29 34 -25 60 10 36 46
55 32 47 -35 -4 -40 -2 -49 12 -55 22 -8 31 4 39 55 4 26 15 44 36 59 25 18
30 28 30 61 0 36 -4 42 -47 69 -56 36 -68 37 -87 8z m79 -73 c0 -23 -30 -32
-51 -14 -11 9 -12 15 -2 26 17 20 53 12 53 -12z"/>
<path d="M2160 4023 c-310 -33 -632 -175 -896 -395 -316 -263 -526 -656 -579
-1081 -19 -152 -19 -249 0 -407 87 -743 640 -1329 1386 -1467 129 -24 434 -23
574 1 119 20 333 90 448 145 255 124 509 342 659 566 255 382 346 806 269
1257 -63 366 -266 727 -546 971 -250 217 -565 361 -890 407 -66 9 -349 11
-425 3z m495 -94 c337 -64 601 -204 845 -449 69 -69 153 -164 187 -213 125
-178 222 -403 265 -620 30 -150 32 -440 4 -592 -111 -606 -576 -1114 -1167
-1274 -294 -80 -652 -71 -938 24 -248 83 -442 204 -637 399 -234 234 -372 489
-446 821 -19 86 -22 130 -22 315 0 236 14 330 74 512 112 335 364 657 667 851
208 133 466 223 718 251 89 9 343 -4 450 -25z"/>
<path d="M2127 3742 c-26 -28 -22 -78 8 -104 14 -12 25 -32 25 -44 0 -35 -87
-200 -121 -228 -36 -30 -83 -34 -119 -9 -50 34 -63 70 -35 93 23 19 18 68 -10
95 -38 39 -85 29 -103 -22 -12 -35 0 -67 32 -89 31 -20 33 -52 7 -110 -21 -46
-64 -70 -108 -60 -16 4 -55 36 -91 74 -59 63 -63 69 -56 102 11 53 7 73 -17
93 -47 38 -109 6 -109 -56 0 -39 25 -67 61 -67 13 0 29 -4 34 -8 15 -10 99
-194 125 -272 12 -36 24 -100 27 -142 l6 -77 -28 -11 c-92 -35 -272 -190 -359
-309 -49 -67 -54 -98 -7 -46 27 31 121 110 121 104 1 -2 2 -42 3 -89 2 -67 9
-97 29 -142 30 -66 62 -87 144 -95 30 -3 54 -9 54 -13 0 -4 -27 -17 -59 -29
-120 -44 -237 -153 -296 -276 -35 -71 -65 -177 -65 -228 0 -34 15 -28 25 10
33 135 192 307 375 406 93 50 264 106 364 119 52 6 86 15 86 22 0 20 -59 47
-123 56 -52 8 -66 14 -89 42 -42 49 -37 68 15 68 71 0 77 15 18 45 -29 14 -50
29 -46 33 3 4 25 11 48 17 34 8 42 14 40 32 -2 18 4 22 40 28 62 11 167 44
167 54 0 5 -25 11 -56 15 -90 10 -164 49 -164 85 0 14 23 16 193 16 122 1 244
7 337 19 l145 18 88 -32 c81 -30 92 -37 124 -82 19 -26 43 -53 52 -58 10 -5
64 -21 122 -35 57 -15 136 -39 176 -55 86 -34 205 -108 200 -123 -5 -16 -133
-47 -194 -47 -28 0 -54 -4 -57 -9 -10 -16 34 -59 67 -66 17 -4 58 -21 91 -37
l59 -30 -6 -64 c-4 -36 -14 -80 -23 -100 -26 -54 -132 -153 -199 -186 -54 -26
-68 -29 -145 -26 l-85 3 -17 -36 c-18 -39 -48 -70 -48 -50 0 7 11 31 25 54 25
44 24 56 -10 75 -17 9 -27 3 -72 -39 -48 -46 -73 -60 -73 -41 0 4 20 28 45 52
49 48 53 61 29 81 -13 11 -25 8 -75 -20 -75 -41 -87 -35 -19 9 49 32 54 38 51
72 -4 31 19 58 70 84 28 14 49 30 46 37 -5 18 -96 59 -142 64 -31 4 -51 -1
-85 -21 -30 -17 -60 -26 -89 -26 -41 0 -49 5 -93 50 -26 28 -51 50 -54 50 -9
0 7 -62 27 -101 22 -44 67 -83 114 -100 19 -7 35 -16 35 -21 0 -15 -75 -20
-142 -9 -39 6 -73 10 -75 7 -6 -6 36 -44 81 -73 34 -22 37 -27 22 -35 -9 -5
-44 -8 -78 -6 -43 2 -62 -1 -65 -10 -8 -21 118 -134 194 -175 45 -24 119 -50
206 -71 192 -49 256 -87 301 -179 35 -71 41 -128 23 -207 -20 -85 -56 -148
-130 -226 -33 -35 -55 -64 -50 -64 18 0 170 92 240 147 218 166 372 425 428
715 20 106 21 318 1 420 -34 176 -125 381 -231 517 -114 149 -380 351 -461
351 -23 0 -60 -52 -118 -167 -24 -49 -46 -69 -46 -42 0 49 151 378 184 401 6
4 23 8 37 8 52 0 78 69 43 118 -20 29 -67 29 -95 1 -18 -18 -20 -28 -15 -72
l7 -50 -63 -64 c-54 -55 -67 -63 -100 -63 -57 0 -87 16 -103 55 -23 54 -19 90
10 103 36 17 48 55 31 97 -18 42 -55 55 -91 31 -34 -22 -40 -57 -19 -101 20
-43 14 -58 -37 -93 -37 -25 -74 -24 -116 3 -25 17 -94 146 -111 208 -10 35 -8
40 19 68 33 33 38 72 13 107 -19 28 -74 30 -97 4z m-375 -946 c36 -19 108 -78
108 -89 0 -5 -18 -6 -40 -2 -38 6 -55 -5 -30 -20 8 -5 15 -45 8 -45 -2 0 -28
7 -57 15 -63 16 -81 9 -81 -34 0 -50 31 -156 56 -193 13 -21 24 -41 24 -45 -2
-20 -171 26 -210 56 -24 19 -25 25 -25 113 0 81 4 100 27 143 14 28 34 58 44
67 53 47 124 61 176 34z m1639 -613 c-12 -61 -25 -83 -40 -67 -10 10 18 159
34 184 15 23 18 -47 6 -117z m-55 -156 c2 -7 -2 -30 -11 -51 -12 -29 -14 -54
-9 -105 8 -85 -13 -139 -80 -205 -50 -51 -76 -59 -76 -23 0 41 -21 56 -95 66
-61 9 -74 14 -102 45 -47 51 -43 61 30 76 88 17 163 60 243 140 69 70 90 82
100 57z"/>
<path d="M2420 2742 c0 -6 22 -26 49 -45 51 -37 73 -74 51 -87 -6 -4 -30 -4
-53 0 -50 10 -78 0 -106 -36 -28 -36 -27 -44 10 -44 17 0 39 -5 50 -10 33 -18
85 -14 116 8 16 11 41 24 56 27 30 8 33 19 12 55 -8 14 -14 29 -15 34 0 9 43
4 73 -9 28 -12 21 21 -11 43 -50 36 -232 86 -232 64z"/>
<path d="M2720 2533 c0 -30 102 -63 240 -78 l55 -6 -23 20 c-13 11 -49 29 -80
41 -64 24 -192 39 -192 23z"/>
<path d="M2107 2120 c-23 -75 -47 -214 -47 -275 0 -66 24 -173 48 -222 30 -57
96 -119 160 -148 176 -81 226 -116 265 -190 29 -54 29 -166 -1 -250 -11 -33
-19 -62 -16 -64 2 -3 22 12 43 33 93 91 123 235 69 328 -37 62 -76 92 -216
169 -166 91 -229 155 -262 264 -7 22 -15 123 -19 225 l-6 185 -18 -55z"/>
<path d="M1921 2045 c-45 -74 -97 -213 -112 -300 -14 -83 -6 -270 15 -335 51
-160 144 -286 281 -385 67 -48 144 -89 152 -81 3 3 -31 40 -74 83 -84 83 -125
138 -175 237 -116 229 -140 533 -62 768 23 71 13 76 -25 13z"/>
<path d="M1648 1992 c-117 -124 -183 -259 -196 -402 -8 -82 2 -194 20 -237 11
-25 13 -14 19 87 10 190 72 371 183 534 25 38 45 74 43 79 -1 5 -32 -23 -69
-61z"/>
<path d="M3477 3952 c-23 -25 -21 -58 4 -98 32 -52 6 -73 -44 -34 -29 23 -57
26 -57 7 0 -37 66 -87 114 -87 49 0 72 75 41 130 -8 14 -14 28 -15 33 0 15 38
6 55 -13 14 -15 21 -17 32 -9 23 19 14 46 -21 68 -41 26 -88 27 -109 3z"/>
<path d="M1144 3941 c-63 -38 -66 -138 -7 -193 41 -37 77 -39 163 -9 66 23 75
29 75 51 0 21 -4 25 -27 22 -25 -2 -28 0 -28 30 0 91 -99 146 -176 99z m105
-70 c35 -33 39 -56 14 -83 -22 -25 -46 -23 -82 8 -23 19 -31 34 -31 59 0 53
51 61 99 16z"/>
<path d="M953 3769 c-24 -22 -43 -47 -43 -55 0 -18 138 -164 155 -164 19 0 95
85 95 107 0 35 -16 36 -55 2 -34 -30 -37 -31 -53 -16 -15 16 -14 19 11 45 31
33 34 47 10 57 -12 4 -25 -2 -40 -19 -24 -28 -38 -32 -49 -15 -3 6 6 23 21 39
27 29 29 60 3 60 -7 0 -32 -19 -55 -41z"/>
<path d="M3705 3761 c-32 -14 -73 -60 -80 -91 -8 -38 24 -113 59 -135 47 -31
64 11 21 51 -28 26 -32 60 -10 91 29 42 89 37 127 -10 14 -18 19 -19 32 -8 23
19 20 34 -11 63 -50 46 -91 58 -138 39z"/>
<path d="M3830 3565 c-85 -64 -100 -88 -68 -109 13 -8 24 -5 48 13 l32 23 23
-22 c27 -25 24 -42 -11 -60 -26 -14 -32 -51 -11 -68 16 -14 187 112 187 138 0
33 -25 42 -53 20 -33 -26 -51 -25 -71 4 -15 23 -14 26 7 43 13 10 26 24 30 30
8 13 -8 53 -21 53 -4 0 -45 -29 -92 -65z"/>
<path d="M747 3534 c-46 -64 -54 -94 -24 -94 8 0 20 7 27 15 19 23 29 19 100
-34 67 -50 85 -54 96 -18 5 16 1 25 -17 37 -13 8 -45 32 -71 52 -46 37 -47 38
-33 65 8 14 12 30 9 35 -14 22 -44 2 -87 -58z"/>
<path d="M640 3378 c-58 -96 13 -177 100 -113 18 13 37 22 41 19 14 -8 10 -40
-6 -54 -17 -14 -20 -46 -6 -54 29 -18 71 42 71 101 0 68 -59 96 -113 53 -47
-37 -77 -23 -45 21 18 23 19 31 8 44 -18 22 -28 19 -50 -17z"/>
<path d="M4005 3340 c-38 -10 -82 -19 -97 -19 -30 -1 -36 -18 -17 -53 8 -15
17 -18 36 -13 45 11 69 -30 38 -65 -12 -13 -13 -23 -5 -44 5 -15 14 -26 18
-24 18 7 162 168 162 181 0 22 -30 57 -48 56 -9 -1 -48 -9 -87 -19z m45 -60
c0 -12 -28 -25 -36 -17 -9 9 6 27 22 27 8 0 14 -5 14 -10z"/>
<path d="M545 3200 c-9 -29 -1 -36 81 -74 73 -34 86 -50 62 -74 -19 -19 -54
-14 -108 13 -57 29 -73 31 -90 10 -18 -21 2 -42 69 -72 109 -47 184 -17 184
76 0 53 -14 68 -101 108 -86 39 -89 39 -97 13z"/>
<path d="M4087 3132 c-80 -34 -87 -39 -85 -62 3 -22 8 -25 44 -25 34 0 46 -6
68 -32 46 -54 115 -37 132 33 9 37 -25 118 -51 121 -11 1 -60 -15 -108 -35z
m111 -59 c5 -35 -49 -41 -62 -7 -4 9 3 18 17 24 30 12 41 7 45 -17z"/>
<path d="M4252 2939 c3 -32 3 -32 -82 -57 -47 -13 -87 -26 -89 -28 -2 -2 -1
-15 3 -29 8 -31 28 -32 116 -5 61 19 66 19 78 3 6 -9 12 -20 12 -25 0 -4 9 -8
20 -8 26 0 26 23 0 111 -17 56 -25 69 -41 69 -17 0 -20 -5 -17 -31z"/>
<path d="M440 2931 c-11 -28 -10 -34 6 -52 11 -12 36 -28 56 -36 50 -20 39
-33 -27 -33 -47 0 -57 -3 -71 -25 -24 -36 -10 -63 39 -76 23 -6 68 -20 100
-30 32 -11 62 -17 68 -14 15 10 11 55 -6 55 -9 0 -32 8 -53 17 l-37 17 60 6
c55 5 60 7 63 30 2 22 -4 29 -43 48 -50 24 -62 49 -17 36 15 -4 41 -8 57 -8
25 -1 30 3 33 24 3 25 0 27 -85 43 -48 9 -97 20 -109 23 -17 4 -24 -1 -34 -25z"/>
<path d="M4260 2734 c-41 -7 -90 -16 -109 -19 l-33 -6 7 -57 c9 -76 21 -103
40 -96 10 4 15 20 15 49 0 24 5 47 10 50 16 10 38 -13 42 -43 2 -19 9 -27 23
-27 17 0 20 7 21 40 0 29 5 41 17 43 17 4 21 -2 31 -50 7 -30 33 -38 43 -12 6
17 -13 125 -25 134 -4 4 -41 1 -82 -6z"/>
<path d="M370 2590 c0 -37 3 -42 35 -56 19 -7 44 -14 55 -14 11 0 20 -4 20
-10 0 -10 -63 -30 -97 -30 -17 0 -24 -8 -29 -36 -4 -20 -2 -40 4 -46 9 -9 211
-42 218 -35 2 2 5 14 6 28 3 22 -2 25 -49 34 -83 16 -76 26 27 37 19 2 26 10
28 29 3 22 -2 27 -36 37 -22 7 -46 19 -53 28 -12 14 -7 15 42 12 l54 -3 3 31
3 32 -115 1 -116 2 0 -41z"/>
<path d="M4305 2533 c-16 -1 -58 -6 -92 -9 -62 -5 -63 -6 -63 -35 0 -28 2 -29
45 -29 58 0 61 -24 6 -41 -43 -13 -53 -25 -44 -58 7 -26 16 -26 69 -2 35 16
44 17 67 5 18 -10 33 -11 51 -4 56 21 57 186 1 178 -5 0 -23 -3 -40 -5z m38
-77 c6 -15 -11 -36 -28 -36 -17 0 -34 21 -28 36 3 8 15 14 28 14 13 0 25 -6
28 -14z"/>
<path d="M470 2219 c-13 -30 -15 -31 -57 -25 -49 6 -57 -8 -23 -39 24 -21 25
-43 5 -69 -8 -11 -15 -23 -15 -28 0 -12 38 -10 45 2 11 18 41 11 65 -15 33
-35 41 -31 38 16 -3 37 0 44 26 58 43 25 42 38 -3 46 -23 4 -42 11 -42 16 -1
5 -3 14 -4 19 -1 6 -3 19 -4 30 -2 30 -17 24 -31 -11z"/>
<path d="M4227 2243 c-2 -5 -7 -20 -11 -35 -6 -25 -11 -28 -51 -28 -54 0 -57
-13 -14 -50 31 -25 31 -27 18 -63 -16 -46 -8 -55 29 -28 35 25 55 26 72 6 7
-8 19 -15 27 -15 12 0 13 8 8 40 -6 36 -4 42 24 66 39 32 32 44 -23 44 -42 0
-44 1 -50 35 -6 33 -19 45 -29 28z"/>
<path d="M4159 1940 c-12 -40 -19 -44 -66 -41 -37 3 -38 -20 -3 -49 32 -26 33
-29 21 -58 -18 -44 -6 -57 29 -32 31 22 55 26 65 10 3 -5 15 -15 27 -21 19
-10 20 -9 13 40 -4 29 -3 51 2 51 16 0 54 41 48 51 -4 5 -26 9 -49 9 -42 0
-44 1 -50 35 -10 50 -23 52 -37 5z"/>
<path d="M517 1963 c-2 -5 -7 -20 -11 -35 -6 -25 -11 -28 -46 -28 -21 0 -41
-4 -45 -9 -6 -10 32 -51 48 -51 9 0 7 -19 -8 -67 -9 -27 15 -32 35 -8 16 20
45 19 76 -1 32 -21 38 -14 26 30 -10 33 -8 37 20 60 38 29 30 46 -21 46 -36 0
-39 2 -45 35 -6 33 -19 45 -29 28z"/>
<path d="M604 1678 c-9 -30 -14 -33 -52 -36 -50 -4 -54 -20 -11 -46 21 -13 28
-23 24 -34 -13 -34 -17 -72 -8 -72 6 0 18 9 28 20 23 25 40 25 75 0 34 -24 41
-18 27 26 -10 34 -9 37 21 60 18 14 32 29 32 34 0 5 -21 10 -47 12 -44 3 -48
5 -53 32 -7 41 -25 43 -36 4z"/>
<path d="M4070 1665 c-11 -32 -15 -35 -50 -35 -21 0 -41 -4 -45 -9 -6 -10 32
-51 47 -51 11 0 10 -38 -2 -60 -14 -27 5 -35 35 -16 30 20 49 20 65 1 7 -8 21
-15 32 -15 15 0 18 4 13 18 -20 46 -17 67 14 85 46 27 40 45 -16 49 -44 3 -47
5 -55 36 -11 42 -24 41 -38 -3z"/>
<path d="M737 1382 c-86 -23 -98 -28 -95 -46 2 -16 12 -22 40 -24 47 -4 64
-29 42 -61 -16 -23 -11 -61 9 -60 17 0 137 150 137 170 0 9 -8 23 -17 31 -16
14 -28 13 -116 -10z m57 -57 c-7 -16 -30 -20 -38 -6 -7 11 4 21 25 21 12 0 16
-5 13 -15z"/>
<path d="M3868 1366 c-13 -14 -30 -37 -38 -52 -14 -26 -14 -28 14 -48 16 -12
52 -38 80 -59 54 -39 63 -41 80 -13 9 14 6 21 -16 37 -23 17 -26 24 -18 39 6
10 10 34 10 54 0 62 -66 87 -112 42z m70 -59 c2 -9 -4 -20 -13 -23 -20 -8 -50
19 -40 36 10 17 49 8 53 -13z"/>
<path d="M860 1249 c-25 -22 -57 -47 -72 -57 -16 -9 -28 -24 -28 -34 0 -33 28
-31 67 3 46 40 54 25 24 -44 -17 -39 -18 -52 -9 -73 6 -13 17 -23 24 -20 31
12 154 122 154 138 0 26 -33 23 -68 -7 -46 -38 -53 -30 -27 33 20 48 22 60 11
76 -19 30 -27 28 -76 -15z"/>
<path d="M3777 1253 c-15 -14 -5 -42 21 -59 15 -9 48 -35 74 -57 29 -24 53
-37 63 -34 26 10 16 41 -21 67 -20 14 -53 40 -74 58 -38 32 -51 38 -63 25z"/>
<path d="M3738 1189 c-25 -14 -22 -34 9 -59 l27 -21 -27 -26 -26 -27 -24 22
c-27 26 -40 27 -57 7 -10 -13 -1 -26 61 -85 41 -38 81 -69 89 -67 25 4 23 41
-5 67 -23 22 -24 25 -8 42 20 22 46 23 63 3 15 -19 46 -20 53 -2 6 17 5 19
-73 94 -53 51 -68 60 -82 52z"/>
<path d="M1017 1022 c-37 -37 -67 -74 -67 -83 0 -23 76 -93 94 -86 23 9 20 30
-9 57 -13 12 -22 27 -19 31 8 14 40 10 54 -6 7 -8 19 -15 26 -15 21 0 17 34
-6 55 -41 37 -7 50 37 15 20 -15 29 -17 39 -9 8 6 14 16 14 21 0 8 -60 66 -85
80 -7 4 -38 -20 -78 -60z"/>
<path d="M3568 1022 c-34 -32 -42 -78 -18 -108 12 -13 25 -15 73 -9 53 6 58 4
55 -12 -2 -10 -13 -22 -26 -28 -24 -10 -27 -45 -5 -52 22 -7 73 50 79 89 6 31
3 38 -21 54 -23 15 -33 16 -68 6 -54 -14 -68 0 -32 31 19 16 26 29 22 40 -9
24 -22 21 -59 -11z"/>
<path d="M1138 905 c-32 -41 -58 -81 -58 -90 0 -26 32 -31 48 -7 15 23 46 29
57 12 11 -18 63 -11 85 12 20 22 26 63 12 86 -9 13 -72 62 -81 62 -3 0 -32
-34 -63 -75z m102 -10 c15 -19 5 -35 -24 -35 -30 0 -37 9 -25 31 12 23 32 24
49 4z"/>
<path d="M3422 900 c-23 -17 -42 -35 -42 -42 0 -20 110 -158 126 -158 23 0 27
26 9 54 -25 38 -10 51 32 26 37 -21 73 -19 73 5 0 15 -51 55 -69 55 -6 0 -11
16 -11 35 0 61 -53 72 -118 25z m78 -45 c0 -16 -34 -38 -44 -28 -3 3 -6 15 -6
25 0 13 7 18 25 18 15 0 25 -6 25 -15z"/>
<path d="M1317 847 c-70 -95 -87 -123 -87 -138 0 -18 30 -35 39 -22 3 5 19 28
35 53 16 25 35 53 44 63 15 16 17 16 39 -5 13 -12 23 -26 23 -31 0 -5 -16 -35
-36 -68 -37 -59 -40 -94 -8 -87 10 2 33 30 54 63 33 54 39 60 67 58 31 -3 48
14 35 33 -10 15 -120 74 -137 74 -8 0 -15 6 -15 14 0 29 -30 25 -53 -7z"/>
<path d="M3298 820 c-27 -17 -48 -35 -48 -41 0 -21 94 -169 107 -169 21 0 66
25 87 49 15 17 17 24 8 33 -9 9 -19 8 -41 -5 -16 -9 -34 -17 -40 -17 -20 0
-11 31 17 55 20 18 24 26 15 35 -8 9 -19 9 -47 -1 -49 -18 -58 -3 -17 30 23
19 32 33 28 45 -9 22 -14 20 -69 -14z"/>
<path d="M3142 735 c-48 -15 -72 -31 -72 -50 0 -7 18 -51 40 -99 l40 -86 37
15 c59 24 93 67 93 118 0 32 -7 50 -27 74 -35 39 -57 45 -111 28z m53 -41 c16
-6 45 -54 45 -74 0 -14 -37 -50 -53 -50 -12 0 -57 79 -57 101 0 8 13 16 47 28
1 1 9 -2 18 -5z"/>
<path d="M1506 702 c-29 -31 -43 -85 -32 -127 8 -32 60 -65 102 -65 56 0 115
86 100 146 -19 73 -118 100 -170 46z m112 -34 c30 -30 -8 -108 -52 -108 -45 0
-61 48 -30 95 18 27 61 34 82 13z"/>
<path d="M1687 580 c-20 -50 -33 -98 -30 -106 10 -28 36 -9 52 38 24 70 31 68
31 -5 0 -59 2 -67 19 -67 10 0 30 17 45 40 26 39 54 55 42 24 -3 -9 -9 -33
-12 -53 -5 -31 -3 -39 11 -45 10 -3 19 -5 21 -3 8 8 53 200 49 207 -3 4 -14
10 -25 13 -23 6 -47 -16 -83 -73 l-22 -35 -3 71 c-3 64 -5 73 -25 78 -12 3
-25 6 -28 6 -3 0 -22 -41 -42 -90z"/>
<path d="M2942 652 c-9 -6 -12 -36 -10 -113 3 -98 4 -104 25 -107 18 -3 22 2
25 29 4 43 37 56 71 28 46 -35 80 7 37 46 -10 9 -36 42 -56 71 -37 53 -61 65
-92 46z m60 -104 c-16 -16 -37 4 -28 28 6 16 8 16 23 1 13 -13 15 -19 5 -29z"/>
<path d="M2782 610 c-18 -4 -36 -10 -39 -13 -3 -4 5 -50 18 -104 l24 -98 42 2
c53 2 83 18 83 44 0 18 -4 20 -46 13 -41 -6 -46 -5 -42 12 2 10 14 21 28 24
16 4 26 14 28 29 4 23 2 24 -38 17 -36 -6 -41 -4 -38 11 2 9 17 20 36 25 24 6
32 14 30 26 -4 19 -37 24 -86 12z"/>
<path d="M1937 513 c-9 -50 -17 -97 -17 -106 0 -20 106 -45 122 -29 16 16 1
42 -24 42 -31 0 -51 15 -46 31 3 9 20 14 44 14 32 0 39 3 39 20 0 15 -8 21
-33 23 -25 3 -32 8 -30 20 3 13 12 16 41 14 27 -3 39 1 43 13 10 24 -5 33 -66
40 l-56 7 -17 -89z"/>
<path d="M2603 564 c-10 -27 19 -195 35 -201 8 -3 35 -2 61 3 37 7 47 13 49
32 3 20 -1 22 -41 22 l-45 0 -7 57 c-8 67 -20 103 -35 103 -6 0 -13 -7 -17
-16z"/>
<path d="M2220 563 c-79 -29 -92 -171 -20 -208 80 -41 150 11 150 112 0 47
-16 72 -55 89 -36 15 -50 16 -75 7z m61 -53 c40 -22 15 -120 -32 -120 -47 0
-66 73 -29 110 23 23 33 24 61 10z"/>
<path d="M2378 554 c-10 -9 4 -209 15 -216 21 -13 37 5 37 42 0 36 2 39 33 42
24 2 33 8 35 25 3 19 -2 22 -35 25 -52 4 -53 32 0 36 32 3 37 7 37 28 0 23 -3
24 -58 24 -32 0 -61 -3 -64 -6z"/>
</g>
</svg>
