<?xml version="1.0" standalone="no"?>
<!DOCTYPE svg PUBLIC "-//W3C//DTD SVG 20010904//EN"
 "http://www.w3.org/TR/2001/REC-SVG-20010904/DTD/svg10.dtd">
<svg version="1.0" xmlns="http://www.w3.org/2000/svg"
 width="470.000000pt" height="470.000000pt" viewBox="0 0 470.000000 470.000000"
 preserveAspectRatio="xMidYMid meet">
<metadata>
Created by potrace 1.10, written by Peter Selinger 2001-2011
</metadata>
<g transform="translate(0.000000,470.000000) scale(0.050000,-0.050000)"
fill="#5f0909" stroke="none">
<path d="M3960 9009 c-1522 -211 -2822 -1259 -3337 -2689 -871 -2419 563
-4983 3089 -5523 295 -63 1262 -70 1558 -11 2083 414 3509 2238 3389 4334
-138 2414 -2320 4220 -4699 3889z m943 -130 c2794 -280 4462 -3240 3239 -5745
-1063 -2173 -3811 -2941 -5812 -1623 -2713 1786 -2360 5754 630 7079 551 244
1293 354 1943 289z"/>
<path d="M4552 8709 c-6 -18 -12 -121 -12 -230 0 -225 3 -228 182 -215 134 9
141 87 8 107 -118 18 -121 76 -5 85 108 9 114 104 6 104 -38 0 -74 8 -80 18
-18 29 38 61 100 56 51 -3 59 3 59 46 0 64 -234 90 -258 29z"/>
<path d="M4170 8505 c17 -259 10 -245 130 -245 128 0 160 15 160 72 0 43 -9
48 -88 48 l-88 0 -15 170 c-13 164 -15 170 -64 170 l-50 0 15 -215z"/>
<path d="M5058 8657 c-59 -107 -178 -361 -178 -378 0 -37 99 -19 120 21 35 66
131 54 157 -20 22 -64 103 -87 103 -30 0 33 -60 417 -66 423 -34 34 -114 24
-136 -16z m82 -177 c0 -27 -13 -40 -40 -40 -39 0 -54 39 -27 67 28 27 67 12
67 -27z"/>
<path d="M3781 8641 c-12 -21 -21 -61 -21 -89 0 -78 -31 -78 -90 -1 -37 49
-67 69 -95 65 -70 -10 -62 -51 33 -151 60 -65 96 -125 109 -183 37 -164 115
-141 97 29 -8 81 -1 141 27 222 21 62 34 120 28 129 -19 31 -67 20 -88 -21z"/>
<path d="M5440 8537 c-12 -48 -39 -143 -59 -211 -43 -145 -36 -157 106 -183
299 -56 439 288 171 422 -152 75 -192 70 -218 -28z m196 -68 c114 -81 -12
-295 -136 -229 -34 18 -34 26 -8 113 44 147 70 168 144 116z"/>
<path d="M3241 8518 c-163 -57 -193 -138 -52 -138 61 0 66 -6 115 -145 39
-113 60 -146 93 -151 57 -9 57 48 -1 214 l-45 128 44 29 c130 86 28 128 -154
63z"/>
<path d="M5880 8260 c-96 -223 -98 -216 57 -281 89 -38 110 -41 125 -17 28 45
22 55 -65 99 -100 52 -74 120 31 80 65 -25 92 -13 92 38 0 23 -23 45 -62 59
-36 12 -58 32 -53 47 10 27 26 27 130 4 59 -13 65 -10 65 34 0 45 -31 65 -201
127 -25 9 -52 -34 -119 -190z"/>
<path d="M2930 8380 c-18 -29 157 -410 189 -410 69 0 64 61 -20 245 -82 179
-131 227 -169 165z"/>
<path d="M2714 8275 c-5 -14 21 -82 58 -151 95 -176 88 -243 -23 -216 -32 8
-65 45 -97 107 -72 140 -98 169 -138 154 -116 -45 148 -409 274 -378 86 22
158 124 147 209 -22 163 -186 367 -221 275z"/>
<path d="M6346 8264 c-32 -20 -206 -320 -206 -355 0 -62 62 -55 119 13 69 83
91 66 91 -68 0 -139 62 -164 82 -33 10 57 35 105 83 152 69 70 77 134 25 198
-34 40 -172 106 -194 93z m128 -156 c20 -53 -55 -85 -113 -49 -24 15 -24 23
-2 49 34 41 99 41 115 0z"/>
<path d="M4100 8099 c-2561 -351 -3719 -3461 -1998 -5370 1911 -2121 5398
-936 5637 1915 168 2015 -1638 3730 -3639 3455z m970 -169 c2171 -386 3261
-2920 2041 -4749 -1329 -1994 -4304 -1812 -5376 329 -913 1823 197 4036 2215
4418 88 17 183 35 210 40 103 19 736 -7 910 -38z"/>
<path d="M4073 7563 c-50 -55 -42 -153 17 -199 28 -22 50 -58 50 -80 0 -64
-176 -398 -233 -443 -144 -113 -399 32 -296 168 65 86 4 216 -101 216 -127 0
-166 -132 -68 -230 133 -133 -2 -388 -181 -345 -82 20 -307 266 -291 318 35
113 34 130 -17 181 -61 61 -119 65 -173 11 -85 -85 -23 -240 97 -240 97 0 314
-511 337 -793 l11 -143 -67 -35 c-217 -112 -444 -304 -631 -535 -164 -203
-161 -228 8 -74 174 158 170 159 175 -40 7 -316 124 -459 375 -460 89 0 63
-32 -64 -78 -322 -118 -589 -446 -661 -814 -36 -181 -18 -220 36 -80 179 468
771 873 1398 957 226 30 205 113 -37 146 -157 21 -173 28 -215 96 -68 110 -58
133 58 133 124 0 126 19 8 77 -104 50 -101 64 19 93 68 16 82 28 77 62 -5 36
8 45 80 56 117 18 296 76 296 95 0 8 -34 21 -75 28 -152 26 -226 51 -274 95
-104 93 -91 97 339 103 226 4 503 21 636 39 330 46 507 -5 684 -198 97 -106
107 -111 300 -160 347 -88 710 -256 726 -336 8 -38 -166 -92 -356 -111 l-130
-14 63 -64 c35 -36 80 -66 100 -66 21 -1 87 -26 147 -55 l110 -54 -2 -111 c-6
-333 -342 -632 -694 -616 l-160 7 -45 -79 c-24 -44 -54 -83 -67 -87 -32 -11
-28 8 23 97 90 157 -16 205 -157 70 -129 -123 -184 -119 -62 5 150 152 109
236 -67 137 -133 -75 -162 -66 -46 14 79 55 98 79 104 135 7 81 47 129 148
181 99 50 95 65 -30 122 -175 80 -198 81 -338 15 -183 -86 -254 -72 -375 73
-73 90 -87 83 -59 -28 27 -106 131 -227 235 -274 149 -67 71 -101 -161 -71
-81 10 -155 19 -165 19 -30 1 53 -81 133 -132 108 -68 94 -87 -65 -87 -100 0
-140 -7 -140 -25 0 -71 220 -262 416 -363 37 -19 186 -64 332 -101 374 -94
500 -170 596 -358 127 -250 0 -669 -266 -879 -100 -79 -37 -65 128 27 1560
881 1489 3257 -119 3993 -131 60 -122 66 -258 -175 -62 -109 -122 -199 -133
-199 -47 0 73 334 191 530 40 66 73 130 73 142 0 48 80 124 119 114 86 -22
165 111 118 200 -80 153 -252 70 -228 -110 l13 -100 -118 -118 c-125 -126
-189 -145 -314 -98 -102 39 -147 244 -62 283 103 47 107 200 6 257 -113 63
-212 -86 -142 -216 l35 -66 -59 -60 c-136 -135 -284 -85 -395 136 -112 223
-130 304 -77 347 110 89 83 259 -42 259 -40 0 -81 -15 -101 -37z m-693 -1825
c164 -99 223 -188 110 -167 -75 14 -81 8 -50 -51 29 -54 -2 -64 -120 -36 -86
20 -106 19 -122 -5 -41 -62 30 -370 104 -450 86 -94 58 -103 -140 -48 -272 75
-320 133 -294 355 41 345 286 537 512 402z m3131 -1043 c-25 -221 -56 -296
-103 -250 -9 10 40 288 62 350 28 79 54 16 41 -100z m-111 -415 c0 -8 -14 -49
-31 -90 -24 -56 -28 -107 -18 -199 17 -159 -37 -295 -163 -411 -104 -96 -121
-98 -138 -21 -17 80 -41 95 -180 112 -103 13 -131 26 -197 91 -97 97 -87 124
49 143 161 23 300 101 473 264 135 127 205 165 205 111z"/>
<path d="M4643 5642 c4 -9 48 -48 97 -86 141 -107 130 -168 -30 -159 -145 7
-315 -131 -180 -147 22 -3 83 -17 135 -32 92 -26 98 -24 224 40 l130 66 -30
71 c-36 88 -28 97 61 70 84 -26 99 13 25 64 -94 67 -449 159 -432 113z"/>
<path d="M5228 5257 c-35 -57 130 -117 417 -149 136 -16 144 -4 33 53 -152 78
-425 136 -450 96z"/>
<path d="M4043 4495 c-200 -636 -79 -1105 333 -1287 337 -149 456 -248 504
-418 31 -112 16 -288 -38 -429 -45 -120 -23 -129 71 -27 301 329 209 676 -241
908 -502 259 -598 423 -594 1023 1 311 -2 335 -35 230z"/>
<path d="M3621 4195 c-361 -741 -150 -1505 523 -1905 193 -114 239 -97 80 29
-490 387 -726 1342 -495 2000 54 153 -8 81 -108 -124z"/>
<path d="M3247 4311 c-295 -207 -520 -764 -464 -1149 28 -189 56 -248 56 -118
3 385 139 807 371 1145 97 141 105 169 37 122z"/>
<path d="M6664 7976 c-34 -34 -30 -149 8 -206 58 -89 -8 -120 -101 -47 -63 50
-117 24 -79 -39 33 -52 148 -124 200 -124 95 0 140 152 75 252 -48 72 -9 101
61 46 96 -75 148 1 57 83 -70 63 -176 80 -221 35z"/>
<path d="M2210 7957 c-196 -108 -114 -437 110 -437 188 0 400 147 260 180 -39
9 -52 28 -62 90 -24 146 -186 234 -308 167z m185 -143 c49 -44 60 -131 21
-170 -67 -67 -216 26 -216 134 0 106 99 124 195 36z"/>
<path d="M1822 7612 c-103 -105 -106 -94 65 -271 162 -167 143 -163 249 -55
120 122 105 240 -16 124 -35 -33 -70 -50 -89 -43 -43 16 -39 60 9 103 22 20
40 47 40 61 0 47 -56 46 -101 -2 -25 -27 -54 -49 -63 -49 -39 0 -36 60 4 100
43 43 48 101 9 114 -11 3 -59 -33 -107 -82z"/>
<path d="M7070 7584 c-161 -101 -165 -322 -8 -421 84 -52 106 28 28 105 -138
138 59 306 210 179 69 -58 114 -43 91 30 -34 108 -221 170 -321 107z"/>
<path d="M7340 7228 c-194 -145 -187 -137 -161 -186 28 -53 48 -53 121 1 57
43 60 43 100 7 54 -49 51 -75 -20 -127 -68 -50 -71 -61 -33 -112 43 -58 393
208 366 279 -15 39 -81 39 -113 0 -38 -45 -90 -36 -121 21 -25 48 -23 54 32
99 48 39 55 54 38 82 -36 58 -53 53 -209 -64z"/>
<path d="M1433 7167 c-87 -119 -93 -136 -65 -163 28 -28 34 -28 68 2 52 47 59
45 194 -56 136 -102 141 -104 169 -51 30 54 34 48 -109 150 -130 93 -150 123
-107 166 27 27 8 85 -28 85 -14 0 -69 -60 -122 -133z"/>
<path d="M1232 6875 c-119 -184 -1 -339 171 -226 54 36 88 48 101 35 23 -23 3
-104 -25 -104 -11 0 -19 -22 -19 -50 0 -90 76 -64 123 42 81 182 -21 295 -183
204 -112 -63 -164 -43 -100 38 40 51 34 106 -12 106 -15 0 -40 -20 -56 -45z"/>
<path d="M7644 6789 c-114 -25 -211 -50 -217 -55 -26 -27 38 -94 90 -94 30 0
66 -11 79 -24 29 -29 32 -96 4 -96 -28 0 -25 -114 3 -132 27 -17 315 287 316
335 3 102 -54 115 -275 66z"/>
<path d="M1053 6547 c-45 -46 -6 -91 137 -156 147 -67 174 -99 126 -147 -36
-36 -89 -29 -220 29 -139 63 -232 31 -145 -50 203 -190 469 -143 469 83 0 107
-302 305 -367 241z"/>
<path d="M7844 6403 c-170 -67 -185 -77 -180 -123 5 -45 14 -50 82 -45 65 3
85 -6 137 -65 146 -167 320 9 216 218 -25 51 -51 91 -58 90 -6 0 -95 -34 -197
-75z m196 -121 c0 -49 -47 -66 -91 -34 -45 33 -21 72 42 72 35 0 49 -11 49
-38z"/>
<path d="M8140 6031 c0 -74 -20 -84 -265 -142 -62 -15 -79 -101 -24 -122 25
-10 207 30 303 67 14 6 34 -12 45 -42 19 -50 68 -70 89 -36 10 18 -53 283 -77
322 -30 49 -71 22 -71 -47z"/>
<path d="M845 6012 c-28 -61 13 -125 108 -164 98 -42 82 -68 -42 -68 -119 0
-160 -35 -147 -125 5 -40 294 -153 391 -155 67 -1 24 97 -55 123 -104 35 -94
67 20 67 126 0 141 79 27 140 -79 43 -124 109 -55 81 112 -45 188 -38 188 16
0 57 10 53 -236 103 -184 38 -174 39 -199 -18z"/>
<path d="M8085 5623 l-185 -30 2 -81 c4 -143 24 -202 68 -202 35 0 39 11 33
87 -9 110 78 122 97 13 12 -71 71 -91 90 -31 7 22 7 59 0 81 -9 27 -2 44 19
53 42 15 53 4 69 -77 21 -103 72 -86 71 24 -2 120 -24 201 -54 197 -14 -2
-108 -17 -210 -34z"/>
<path d="M708 5389 c-19 -77 10 -114 119 -148 106 -32 118 -55 38 -72 -173
-35 -175 -36 -181 -114 -6 -68 -2 -73 60 -84 350 -59 388 -57 373 22 -6 27
-31 40 -93 48 -117 16 -157 58 -58 62 41 1 83 4 94 7 11 3 29 6 40 8 55 6 18
100 -48 121 -123 41 -140 89 -26 77 81 -10 98 -5 116 29 33 60 6 71 -216 86
l-204 14 -14 -56z"/>
<path d="M8110 5242 c-132 -10 -161 -18 -166 -48 -12 -60 31 -92 107 -80 103
17 94 -47 -11 -89 -61 -24 -80 -42 -80 -77 0 -65 26 -73 119 -36 68 27 92 28
141 8 122 -50 210 86 168 258 -21 82 -22 83 -278 64z m206 -157 c-4 -22 -25
-35 -56 -35 -31 0 -52 13 -56 35 -5 27 7 35 56 35 49 0 61 -8 56 -35z"/>
<path d="M893 4646 c-25 -48 -39 -54 -111 -49 -94 7 -102 -11 -33 -76 47 -44
47 -47 16 -113 -40 -84 -26 -100 53 -59 59 31 63 30 105 -19 61 -69 77 -63 77
28 0 67 8 80 60 102 81 34 75 69 -15 91 -65 17 -76 27 -81 84 -8 79 -33 83
-71 11z"/>
<path d="M8088 4665 c-24 -77 -45 -95 -115 -101 -86 -8 -91 -27 -22 -81 44
-35 48 -50 37 -121 -15 -93 -5 -99 67 -42 47 37 55 38 93 10 101 -74 128 -64
94 34 -22 62 -20 69 42 119 75 62 64 87 -40 87 -64 0 -74 7 -91 65 -21 72 -48
84 -65 30z"/>
<path d="M982 4115 c-23 -70 -31 -75 -104 -75 -94 0 -104 -38 -23 -97 51 -37
53 -44 31 -104 -34 -89 -14 -108 58 -56 58 41 63 41 116 10 79 -47 85 -43 70
44 -11 69 -6 82 42 117 61 45 49 96 -19 78 -58 -14 -84 5 -118 88 l-28 70 -25
-75z"/>
<path d="M7970 4121 c-16 -75 -54 -106 -122 -98 -73 9 -83 -32 -17 -75 48 -32
51 -43 40 -121 -15 -99 -9 -103 71 -46 l58 42 58 -42 c80 -57 86 -53 71 46
-11 78 -7 89 39 120 70 46 69 97 -3 92 -109 -7 -120 -1 -134 71 -16 85 -43 90
-61 11z"/>
<path d="M1164 3615 c-15 -59 -24 -66 -100 -71 -97 -7 -104 -25 -32 -82 46
-36 50 -50 38 -121 -15 -92 -7 -97 65 -41 50 40 50 40 115 0 77 -48 94 -37 65
45 -19 56 -16 66 32 104 74 59 67 91 -18 91 -62 0 -75 9 -100 70 -36 86 -44
87 -65 5z"/>
<path d="M7800 3610 c-11 -29 -20 -61 -20 -71 0 -11 -36 -19 -80 -19 -96 0
-106 -38 -26 -96 50 -37 53 -44 32 -112 -25 -82 -11 -89 74 -39 53 31 58 31
116 -10 67 -48 100 -29 65 35 -34 63 -25 91 39 129 91 54 78 93 -30 93 -85 0
-92 4 -103 60 -16 82 -43 94 -67 30z"/>
<path d="M1380 3036 c-178 -49 -167 -42 -150 -96 10 -33 27 -41 74 -36 79 8
118 -44 80 -105 -29 -46 -15 -120 22 -118 28 1 241 264 251 310 19 93 -57 105
-277 45z m140 -85 c0 -41 -39 -60 -67 -32 -17 17 -15 27 7 42 42 26 60 23 60
-10z"/>
<path d="M7380 2977 c-84 -116 -87 -108 107 -245 126 -89 139 -94 169 -65 29
30 28 37 -21 88 -39 40 -48 64 -34 85 105 167 -105 297 -221 137z m160 -79 c0
-45 -64 -52 -99 -10 -18 23 -16 33 12 48 46 26 87 8 87 -38z"/>
<path d="M1596 2753 c-93 -71 -133 -115 -130 -141 7 -62 45 -59 123 10 93 81
98 73 45 -77 -41 -116 -42 -126 -10 -158 41 -40 316 165 316 235 0 53 -46 47
-119 -14 -79 -67 -95 -52 -54 52 48 118 29 229 -34 198 -1 -1 -63 -48 -137
-105z"/>
<path d="M7226 2766 c-9 -22 3 -44 35 -65 26 -17 92 -69 147 -116 55 -47 106
-85 114 -85 24 0 44 82 25 99 -201 173 -299 224 -321 167z"/>
<path d="M7132 2649 c-7 -19 9 -50 41 -80 51 -48 52 -50 17 -89 -43 -48 -76
-51 -111 -9 -29 35 -102 32 -114 -5 -8 -25 246 -276 280 -276 59 0 61 67 4
116 -99 85 3 175 106 93 47 -36 55 -37 83 -9 28 28 18 43 -98 160 -131 130
-186 156 -208 99z"/>
<path d="M1944 2351 c-68 -71 -124 -142 -124 -158 0 -37 156 -178 181 -162 33
20 21 78 -21 104 -22 14 -40 39 -40 55 0 39 68 39 100 0 14 -16 37 -30 52 -30
37 0 36 69 -2 100 -80 66 -17 104 65 39 109 -85 129 4 23 99 -110 100 -89 105
-234 -47z"/>
<path d="M6828 2353 c-127 -109 -58 -244 116 -224 132 15 147 -5 58 -71 -33
-24 -54 -55 -48 -71 29 -75 161 26 179 136 16 101 -52 150 -166 119 -96 -27
-141 6 -72 52 50 34 61 106 16 106 -16 0 -53 -21 -83 -47z"/>
<path d="M2255 2235 c-6 -14 -52 -76 -102 -139 -51 -62 -93 -123 -93 -135 0
-44 63 -46 108 -3 43 41 48 41 110 10 111 -55 240 63 184 169 -50 93 -185 157
-207 98z m126 -127 c22 -26 22 -34 -2 -49 -64 -40 -142 -1 -100 49 33 41 69
41 102 0z"/>
<path d="M6556 2124 c-41 -30 -75 -67 -75 -84 0 -45 195 -300 230 -300 46 0
58 57 21 97 -69 77 -15 112 79 51 54 -36 109 -26 109 20 0 16 -31 48 -70 72
-54 33 -70 57 -70 101 0 108 -108 128 -224 43z m134 -95 c0 -21 -16 -41 -35
-45 -44 -9 -71 54 -33 78 40 25 68 11 68 -33z"/>
<path d="M2462 1935 c-106 -152 -123 -203 -71 -223 22 -8 54 25 114 118 88
139 110 151 162 93 44 -49 43 -56 -35 -185 -49 -82 -62 -121 -49 -145 31 -55
53 -39 130 97 68 117 81 129 135 125 120 -9 85 53 -76 135 -83 42 -155 88
-160 103 -20 50 -49 27 -150 -118z"/>
<path d="M6315 1964 c-114 -65 -114 -55 -16 -222 112 -192 124 -199 222 -134
130 87 137 172 8 103 -100 -54 -146 -10 -61 59 84 68 61 120 -36 80 -91 -38
-121 -1 -45 55 122 88 63 137 -72 59z"/>
<path d="M5955 1779 c-94 -50 -93 -64 5 -258 87 -173 113 -183 232 -84 221
183 18 476 -237 342z m204 -92 c52 -66 52 -116 1 -167 -54 -54 -74 -51 -110
20 -70 135 -73 160 -25 179 71 29 89 24 134 -32z"/>
<path d="M2917 1775 c-165 -133 -103 -395 92 -395 193 0 276 305 108 391 -68
36 -159 37 -200 4z m190 -119 c28 -45 -28 -166 -84 -181 -48 -13 -123 35 -123
77 0 123 149 198 207 104z"/>
<path d="M3281 1635 c-10 -25 -41 -102 -69 -171 -27 -69 -45 -139 -39 -155 22
-58 65 -27 97 71 44 134 70 126 70 -20 0 -146 31 -157 114 -40 68 96 94 102
74 15 -25 -112 -21 -145 19 -145 39 0 145 344 116 373 -53 52 -102 36 -162
-52 -85 -123 -109 -118 -92 18 17 138 -82 220 -128 106z"/>
<path d="M5665 1659 c-66 -26 -71 -439 -5 -439 26 0 40 13 40 38 0 101 86 139
161 72 33 -31 99 -22 99 13 0 17 -236 339 -246 336 -2 -1 -24 -10 -49 -20z
m91 -186 c4 -19 -6 -33 -23 -33 -38 0 -60 33 -42 61 18 29 58 13 65 -28z"/>
<path d="M5356 1574 c-117 -23 -119 -28 -67 -238 52 -214 44 -207 181 -167
145 42 153 105 13 94 -99 -7 -117 55 -23 77 88 21 67 91 -25 84 -88 -7 -108
47 -26 68 140 35 92 111 -53 82z"/>
<path d="M3752 1542 c-21 -34 -76 -342 -66 -368 11 -30 188 -80 218 -61 35 21
16 87 -25 87 -63 0 -119 37 -106 69 7 20 35 28 83 25 100 -6 116 57 22 81
-103 27 -97 65 10 65 86 0 151 78 67 81 -14 0 -63 8 -110 17 -47 9 -89 11 -93
4z"/>
<path d="M4981 1435 c1 -36 13 -128 26 -205 l25 -140 65 3 c173 8 251 107 84
107 l-78 0 -26 150 c-27 165 -98 228 -96 85z"/>
<path d="M4186 1432 c-49 -42 -56 -63 -56 -159 0 -281 334 -302 365 -23 22
197 -164 306 -309 182z m184 -59 c86 -63 10 -255 -89 -223 -81 26 -94 134 -25
215 36 42 64 44 114 8z"/>
<path d="M4552 1275 c13 -218 17 -235 56 -235 20 0 32 25 36 75 5 66 13 76 66
85 97 17 97 100 0 100 -98 0 -93 67 5 76 132 13 85 84 -55 84 l-120 0 12 -185z"/>
</g>
</svg>
